<svg xmlns="http://www.w3.org/2000/svg" xmlns:xlink="http://www.w3.org/1999/xlink" style="" version="1.1" xml:space="preserve" width="53.23175972972952" height="48.42489261954286"><rect id="backgroundrect" width="100%" height="100%" x="0" y="0" fill="none" stroke="none" class="" style=""/><g class="currentLayer" style=""><title>Layer 1</title><g id="airplane" class="selected" stroke="#ffffff" stroke-opacity="1" fill="#ffffff" fill-opacity="1" transform="rotate(0.005559070967137814 26.644899368330943,23.498090743996446) "><path d="M22.155574001750647,30.513487441856423 L18.420016992676345,29.77195090258751 l1.0106798430936612,-1.386733697757629 l2.9986243767880607,0.11419863935823792 l4.997107535499458,-7.331351415716283 L16.524092648154763,18.684872869563193 l1.3476588040030688,-1.848810571108031 l12.084204339614011,0.518421576469886 l0.8705932422579427,-1.2207180546377245 c0.5220474977932927,-0.716131115094499 1.0893339712693129,-1.300455871105922 1.7013453411589379,-1.7529742680342686 l0.8508011903967503,-0.6124971075711646 c0.635144937000112,-0.4487453141301675 1.0636300078132173,-0.595895543259175 1.2849411331701963,-0.4414506873870212 c0.23827574123800277,0.16651872082632937 0.24418765283290422,0.6165217292225563 0.01722165551558389,1.3502605640418928 l-0.31461651270260527,0.9867869211505855 c-0.23776166196888038,0.7138672654155911 -0.6266626290595999,1.441317628904629 -1.16695994090672,2.1823510904671126 l-0.8813889069095032,1.1565756470686699 l4.4478138364427044,11.021426392335986 l-1.3476588040030688,1.8490621099612423 l-5.9486682626441025,-9.279268294989832 l-5.456694402094439,7.0103878390178 L25.098934857108105,32.34192336585428 l-1.0106798430936612,1.386733697757629 L22.155574001750647,30.513487441856423 z" id="svg_1" stroke="#ffffff" stroke-opacity="1" fill="#ffffff" fill-opacity="1"/></g><g id="Слой_1" class=""/><image id="svg_2" x="47" y="24" width="0" height="1" xlink:href="logo/vector_paint_icon256.png" style="color: rgb(0, 0, 0);"/></g></svg>