<?xml version="1.0" encoding="UTF-8" standalone="no"?>
<svg
   xmlns:dc="http://purl.org/dc/elements/1.1/"
   xmlns:cc="http://creativecommons.org/ns#"
   xmlns:rdf="http://www.w3.org/1999/02/22-rdf-syntax-ns#"
   xmlns:svg="http://www.w3.org/2000/svg"
   xmlns="http://www.w3.org/2000/svg"
   viewBox="0 0 257.33334 257.33334"
   height="257.33334"
   width="257.33334"
   xml:space="preserve"
   id="svg2"
   version="1.1"><metadata
     id="metadata8"><rdf:RDF><cc:Work
         rdf:about=""><dc:format>image/svg+xml</dc:format><dc:type
           rdf:resource="http://purl.org/dc/dcmitype/StillImage" /></cc:Work></rdf:RDF></metadata><defs
     id="defs6" /><g
     transform="matrix(1.3333333,0,0,-1.3333333,0,257.33333)"
     id="g10"><g
       transform="scale(0.1)"
       id="g12"><path
         id="path14"
         style="fill:#ffffff;fill-opacity:1;fill-rule:evenodd;stroke:none"
         d="M 0,1927.56 H 1927.56 V 0 H 0 v 1927.56" /><path
         id="path16"
         style="fill:#e22739;fill-opacity:1;fill-rule:evenodd;stroke:none"
         d="m 1071.48,1515.8 c -4.98,-5.2 -22.5,-31.7 -22.5,-64.53 0,-7.86 0.14,-196.06 0,-202.81 -0.28,-14.32 -9.02,-34.71 -16.22,-41.91 -5.09,-5.09 -36.299,-33.46 -39.065,-36.44 l 17.695,-0.28 c 5.75,5.51 65.88,58.8 72.17,65.97 8.18,9.3 27.67,32.86 27.67,69.86 0,8.7 0.1,187 0.1,194.87 0,29.24 13.62,45.46 20.65,53.29 7.19,8.04 30.89,27.81 35.09,32.26 l -18.57,0.56 c -4.48,-4.49 -70.84,-64.39 -77.02,-70.84" /><path
         id="path18"
         style="fill:#e22739;fill-opacity:1;fill-rule:evenodd;stroke:none"
         d="m 922.633,778.324 73.617,-64.312 h 49.29 c 50.13,0 95.95,21.453 126.17,51.676 30.27,30.261 41.39,70.882 41.39,108.898 0,27.66 0,100.367 0,105.422 0,35.422 -22.25,56.032 -28.43,62.212 -3.37,3.37 -24.82,23.59 -24.82,23.59 v -80.888 c 0,0 23.63,-24.399 28.29,-29.348 21.83,-23.203 21.59,-65.437 -47.53,-132.84 -12.12,-11.789 -46.66,-44.41 -94.2,-44.41 -6.77,0 -123.777,0 -123.777,0" /><path
         id="path20"
         style="fill:#e22739;fill-opacity:1;fill-rule:evenodd;stroke:none"
         d="m 1127.41,1210.98 c -8.22,-8.68 -16.08,-29.92 -16.08,-48.62 0,-10.4 0,-39.93 0,-39.93 0,0 32.51,0 40.48,0 15.73,0 36.51,14.33 41,21.91 0.28,0.56 0,39.6 0,39.6 0,0 10.39,-14.89 21.62,-22.75 4.22,5.33 41.08,50.02 71.94,50.27 51.53,0.42 39.88,-64.59 18.82,-85.38 -6.82,-6.7 -37.25,-34.61 -46.66,-43.56 -24.33,-23.17 -66,-12.07 -66,47.78 0,0 -44.69,-42.44 -51.4,-48.06 -6.74,-5.61 -29.8,-30.06 -29.8,-30.06 0,0 0,-95.059 0,-105.168 0,-50.446 -16.6,-67.371 -30.37,-82.539 -5.33,-5.891 -62.14,-57.707 -69.72,-63.332 l -18.572,-0.414 c 0,0 33.242,30.222 39.912,37.136 7.58,7.871 16.4,23.844 16.4,50.453 0,6.739 -0.84,165.284 -0.84,165.284 0,0 -247.144,0 -258.378,0 -89.871,0 -109.078,99.73 -109.645,126.41 -0.14,7.86 0,87.52 0,99.88 0,16.39 -10.488,44.06 -27.234,52.58 h 25.344 c 2.918,-1.22 18.847,-7.65 18.847,-68.8 0,0 -1.082,-71.16 -1.082,-74.95 0,-31 24.649,-66.57 60.27,-66.57 7.308,0 292.438,0.28 292.438,0.28 0.28,7.87 8.14,37.71 22.19,53.47 7.97,8.89 70.7,66.28 77.86,71.8 l 18.57,0.21 c -2.8,-2.57 -33.13,-29.78 -39.91,-36.93 z m 96.01,-59.9 c 0,0 16.93,-22.47 25,-28.93 31.49,-25.27 46.44,1.86 25.31,30.9 -8.35,11.45 -40.76,8.14 -50.31,-1.97" /><path
         id="path22"
         style="fill:#e22739;fill-opacity:1;fill-rule:evenodd;stroke:none"
         d="m 909.852,962.672 c 0,-14.121 -45.106,-51.609 -47.747,-54.246 -3.261,15.207 -14.636,32.015 -48.261,65.652 l 49.355,49.352 c 33.071,-33.106 46.653,-40.16 46.653,-60.758" /><path
         id="path24"
         style="fill:#e22739;fill-opacity:1;fill-rule:evenodd;stroke:none"
         d="m 995.445,1528.48 c 9.905,-9.91 31.205,-36.77 18.435,-49.57 -11.31,-11.3 -28.825,-29.22 -28.825,-29.22 -0.875,6.47 -17.278,22.01 -17.278,22.01 0,0 0.141,-47.66 0,-53.57 -0.554,-21.52 -8.664,-27.66 -8.664,-27.66 0,0 39.774,-39.46 39.774,-90.15 0,-24.58 0.101,-47.19 0.101,-52.06 0,-10.39 -2.629,-18.44 -9.863,-26.4 -3.582,-3.97 -40.441,-41 -46.055,-46.06 -10.675,-9.62 -21.914,-11.23 -30.332,-11.23 -5.902,0 -133.156,0 -137.09,0 -21.593,0 -43.812,16.84 -43.812,33.69 0,4.22 0.277,50.84 0.277,50.84 7.028,-8.15 14.18,-17.66 31.457,-17.41 13.485,0.2 27.664,10.8 31.453,14.6 3.934,3.96 103.704,108.26 103.704,108.26 0,0 -46.731,43.33 -77.512,63.9 -15.024,10.07 -34.965,-2.63 -37.981,-15.87 -9.445,-41.5 0,-103.73 0,-103.73 0,0 -30.511,30.43 -37.847,37.76 -15.235,15.28 -14.676,49.82 3.476,67.97 2.875,2.89 30.539,34.17 65.68,34.17 5.621,0 48.52,0 54.73,0 36.719,0 76.883,-36.59 76.883,-36.59 0,0 5.903,6.46 5.903,12.71 0,18.82 -0.711,69.58 -0.711,69.58 -27.621,27.62 -31.383,56.14 -18.149,69.37 24.719,24.71 33.703,33.42 33.703,33.42 0,0 -0.277,-29.97 28.543,-58.76 z M 823.457,1253.03 c -13.516,-14.15 -15.863,-17.69 -28.5,-25.27 1.121,0 149.586,0 154.395,0 41.843,0 33.523,25.97 26.011,39.06 -15.375,26.86 -63.968,76.78 -63.968,76.78 0,0 -85.122,-87.58 -87.938,-90.57" /><path
         id="path26"
         style="fill:#e22739;fill-opacity:1;fill-rule:evenodd;stroke:none"
         d="m 647.406,1112.5 h -25.343 c 0,0 27.234,-14.96 27.234,-53.54 0,-10.18 0,-114.796 0,-123.214 0,-80.191 66.137,-154.328 146.504,-154.328 13.512,0 58.137,0 67.121,0 40.305,0 54.445,9.754 78.808,31.379 8.926,7.941 20.536,20.965 24.786,25.703 14.043,15.723 28.996,28.43 28.996,69.719 0,10.109 0,34.719 0,40.332 0,34.863 -20.18,49.359 -29.942,59.119 -6.25,6.25 -23.418,22.65 -23.418,22.65 v -82.605 c 0,0 16.918,-18.012 24.364,-23.871 34.864,-27.528 7.125,-75.305 -25.207,-75.305 -6.457,0 -138.422,-0.039 -147.407,-0.277 -54.273,-1.344 -127.648,47.07 -127.648,128.48 0,10.957 0,59.858 0,66.958 0,68.8 -18.848,68.8 -18.848,68.8" /><path
         id="path28"
         style="fill:#e22739;fill-opacity:1;fill-rule:evenodd;stroke:none"
         d="m 808.957,962.453 c 0,-14.07 -45.109,-51.598 -47.734,-54.234 -3.235,15.207 -14.641,32.011 -48.274,65.648 l 49.356,49.363 c 33.109,-33.113 46.652,-40.128 46.652,-60.777" /><path
         id="path30"
         style="fill:#e22739;fill-opacity:1;fill-rule:evenodd;stroke:none"
         d="m 292.871,414.453 c -8.039,0 -70.078,0.102 -78.953,0.102 -24.898,0 -22.996,20.675 -25.176,38.343 V 566.18 c 0,0 17.274,0.422 36.86,0.422 21.875,0 49.121,3.234 75.621,-11.766 0,0 -19.059,45.957 -75.762,45.957 h -36.719 c 0,0 0,6.527 0,22.262 v 14.039 c 0,0 0,31.629 -7.722,40.969 0,0 48.832,-0.176 52.164,-0.176 45.148,-0.032 80.05,0.664 116.343,-23.516 0,0 -6.949,59.746 -94.152,59.746 -50.301,0 -163.2109,0 -170.3359,0 0,0 29.5659,-25.316 28.7499,-76.844 l 0.816,-206.429 c 0,-51.817 20.739,-53.25 20.739,-53.25 2.008,0 12.496,0 58.176,0 7.652,0 16.886,0 26.957,0 24.648,0 56.73,0 82.746,0 38.05,0 51.289,27.207 51.289,41.945 l 0.566,19.801 c 0,0 -12.082,-24.887 -62.207,-24.887" /><path
         id="path32"
         style="fill:#e22739;fill-opacity:1;fill-rule:evenodd;stroke:none"
         d="m 739.766,431.898 v 144.395 c 0,56.027 -45.778,70.914 -79.868,70.914 -45.14,0 -58.656,-37.707 -64.414,-50.664 -10.074,35.148 -45.25,51.078 -74.109,51.078 -54.523,0 -68.355,-51.914 -68.355,-51.914 0,0 -1.293,50.125 -45.071,50.125 l -42.902,-0.102 c 0,0 24.851,-10.218 24.851,-53.535 l -0.07,-160.324 c 0,-52.945 21.348,-53.859 21.348,-53.859 h 70.703 c -1.824,0.914 -27.141,20.011 -27.141,54.304 v 142.215 c 0.879,6.321 11.555,27.805 42.055,27.805 17.277,0 36.273,-18.004 35.844,-38.266 L 532.57,431.938 c 0,-53.715 21.067,-53.856 21.067,-53.856 h 70.984 c 0,0 -27.141,19.098 -27.141,54.305 l -0.207,142.254 c 2.665,7.929 12,27.25 38.79,27.25 21.347,0 39.218,-18.016 38.789,-38.274 0,0 -0.137,-120.621 -0.067,-131.82 0.317,-54.063 21.067,-53.574 21.067,-53.574 36.964,0 70.984,-0.141 70.984,-0.141 0,0 -27.07,18.707 -27.07,53.816" /><path
         id="path34"
         style="fill:#e22739;fill-opacity:1;fill-rule:evenodd;stroke:none"
         d="m 863.797,431.969 c 0,-35.594 27.238,-53.887 27.238,-53.887 0,0 -33.765,0.141 -70.703,0.141 0,0 -21.691,-0.321 -21.691,53.328 v 0.246 l 0.066,160.785 c 0,42.402 -24.566,53.289 -24.566,53.289 h 42.898 c 15.125,0 46.621,0 46.621,-59.965 l -0.109,-153.687 0.246,-0.25" /><path
         id="path36"
         style="fill:#e22739;fill-opacity:1;fill-rule:evenodd;stroke:none"
         d="m 1081.63,625.652 c 0,0 -6.81,19.274 -36.19,19.274 -44.41,0 -55.229,-52.77 -55.229,-52.77 -3.613,41.703 -14.777,54.035 -46.125,54.035 l -42.902,-0.109 c 0,0 24.859,-10.18 24.859,-53.5 l -0.078,-160.543 c 0,-52.969 21.344,-53.848 21.344,-53.848 h 70.711 c -1.83,0.879 -27.145,19.973 -27.145,54.278 l 0.07,131.437 c 1.86,11.93 8.012,21.094 17.345,27.133 23.32,15.086 55.12,11.516 73.34,-10.746 0,0 0,28.402 0,45.359" /><path
         id="path38"
         style="fill:#e22739;fill-opacity:1;fill-rule:evenodd;stroke:none"
         d="m 1411.59,615.961 c 23.94,0 41.82,-10.461 41.82,-10.461 l 0.2,40.402 h -59.47 l 0.03,61.258 c 0,0 -15.61,-27.027 -47.6,-53.285 -20.07,-16.504 -62.24,-36.859 -62.24,-36.859 l 44.9,-0.809 -0.07,-186.309 c 0,-51.675 21.6,-51.675 21.6,-51.675 38.79,0 70.63,-0.141 70.63,-0.141 0,0 -27.32,18.293 -27.32,52.273 l 0.07,185.711 c 18.64,-0.066 5.79,-0.105 17.45,-0.105" /><path
         id="path40"
         style="fill:#e22739;fill-opacity:1;fill-rule:evenodd;stroke:none"
         d="m 1626.58,535.074 c -39.67,-41.496 -70.81,-34.996 -95.74,-65.398 0,-0.039 4,-41.219 35.5,-55.75 10.78,-4.985 54.45,-20.746 82.75,28.082 l -0.21,-43.215 c 0,0 -18.15,-21.098 -75.8,-21.098 -69.47,0 -117.05,54.621 -117.05,128.7 0,72.843 38.8,140.464 112.03,140.839 71.79,0.387 110.65,-57.609 58.52,-112.16 z m -43.42,16.996 c 11.75,21.696 20.98,76.778 -19.14,73.762 -46.48,-3.484 -37.63,-127.09 -37.63,-127.09 15.55,16.887 38.86,20.328 56.77,53.328" /><path
         id="path42"
         style="fill:#e22739;fill-opacity:1;fill-rule:evenodd;stroke:none"
         d="m 830.941,667.535 c 18.219,0 32.997,14.461 32.997,32.293 0,17.832 -14.778,32.301 -32.997,32.301 -18.222,0 -33,-14.469 -33,-32.301 0,-17.832 14.778,-32.293 33,-32.293" /><path
         id="path44"
         style="fill:#e22739;fill-opacity:1;fill-rule:evenodd;stroke:none"
         d="m 1155.31,408.453 c -16.14,0 -27.65,16.777 -27.65,33.977 0,66.84 54.72,76.074 69.36,93.906 l 0.11,-112.688 c -6.46,-5.75 -13.03,-15.195 -41.82,-15.195 z m 41.71,153.688 c -16.46,-28.821 -144.43,-34.926 -124.8,-133.895 7.76,-39.246 33.91,-50.691 66.81,-50.691 31.95,0 51.15,16.679 59.18,32.191 4.78,-29.801 19.84,-31.523 19.84,-31.523 36.97,0 70.71,-0.141 70.71,-0.141 0,0 -27.53,18.293 -27.53,53.609 v 150.461 c 0,35.985 -39.91,64 -82.32,64 -40.76,0 -66.39,-19.625 -66.39,-19.625 0,-12.043 0,-46.691 0,-46.691 0,0 14.54,36.996 51.43,36.996 35.98,0 38.65,-17.93 38.44,-26.887 0,0 3.63,-12.109 -5.37,-27.804" /><path
         id="path46"
         style="fill:#e22739;fill-opacity:1;fill-rule:evenodd;stroke:none"
         d="m 1783.12,450.789 c 0.39,-18.918 -16.54,-43.777 -52.55,-43.777 -36.87,0 -51.61,37.734 -51.61,37.734 V 396.93 c 0,0 26.61,-18.957 67.37,-18.957 48.37,0 97.28,36.761 96.19,87.949 -0.36,18.004 -6.78,33.348 -16.61,46.582 -16.36,21.941 -46.16,37.277 -69.23,51.469 -13.16,8.109 -20.15,22.601 -20.32,27.695 -0.39,8.957 3.96,27.066 39.98,27.066 35.14,0 50.1,-36.996 50.1,-36.996 l -0.14,44.789 c 0,0 -26.89,21.344 -67.65,21.344 -42.41,0 -80.92,-28.012 -80.19,-63.996 0.67,-31.594 13.97,-52.062 39.82,-71.34 10.22,-7.613 22.4,-15.019 36.51,-22.851 20.57,-11.411 28.05,-25.383 28.33,-38.895" /></g></g></svg>